<svg xmlns="http://www.w3.org/2000/svg" width="100%" height="140" viewBox="0 0 1200 140">
  <defs>
    <radialGradient id="webfade2" cx="50%" cy="50%" r="50%">
      <stop offset="0%" stop-color="#e11d2e" stop-opacity="0.9"/>
      <stop offset="100%" stop-color="#0d0d0d" stop-opacity="0.9"/>
    </radialGradient>
  </defs>
  <g stroke="url(#webfade2)" stroke-width="1" fill="none" opacity="0.6">
    <line x1="0" y1="0" x2="1200" y2="0"/>
    <line x1="0" y1="70" x2="1200" y2="70"/>
    <line x1="100" y1="0" x2="100" y2="140"/>
    <line x1="400" y1="0" x2="400" y2="140"/>
    <line x1="700" y1="0" x2="700" y2="140"/>
    <line x1="1000" y1="0" x2="1000" y2="140"/>
  </g>
  <g id="spider">
    <ellipse cx="0" cy="70" rx="10" ry="7" fill="#0d0d0d" stroke="#e11d2e" stroke-width="1"/>
    <circle cx="8" cy="66" r="4" fill="#0d0d0d" stroke="#e11d2e" stroke-width="1"/>
    <g stroke="#e11d2e" stroke-width="1.2" fill="none">
      <path d="M -6 66 Q -16 58 -22 62"/>
      <path d="M -6 70 Q -18 68 -24 70"/>
      <path d="M -6 74 Q -16 82 -22 78"/>
      <path d="M 6 66 Q 16 58 22 62"/>
      <path d="M 6 70 Q 18 68 24 70"/>
      <path d="M 6 74 Q 16 82 22 78"/>
    </g>
    <animateMotion path="M 0,0 L 1180,0" dur="6s" repeatCount="indefinite"/>
  </g>
</svg>
